# xmcd
#
# Track frame offsets:
#	150
#	10748
#	21963
#	35233
#	45910
#	54470
#	63905
#	76853
#	87320
#	98153
#	109650
#	122470
#	129423
#	138635
#	149318
#	162670
#	169815
#	180155
#
# Disc length: 2540 seconds
#
# Revision: 4
# Processed by: cddbd v1.5.2PL0 Copyright (c) Steve Scherf et al.
# Submitted via: audiograbber 1.83.01
#
DISCID=e709ea12
DTITLE=Various Artist - Country 5
DYEAR=1996
DGENRE=Country
TTITLE0=A satisfied mind
TTITLE1=Crying time
TTITLE2=Swingin' doors
TTITLE3=Memphis
TTITLE4=I've got the tiger by the tail
TTITLE5=Some of those memories
TTITLE6=Aparment no' 9
TTITLE7=Here comes my baby
TTITLE8=Once a day
TTITLE9=Sweet thang
TTITLE10=Seasons of my heart
TTITLE11=Alone with you
TTITLE12=A heartache for a keepsake
TTITLE13=I could never be ashames of you
TTITLE14=There goes my everything
TTITLE15=Goin' steady
TTITLE16=As far as I'm concerned
TTITLE17=If you ain't lovin' you ain't livin'
EXTD=
EXTT0=
EXTT1=
EXTT2=
EXTT3=
EXTT4=
EXTT5=
EXTT6=
EXTT7=
EXTT8=
EXTT9=
EXTT10=
EXTT11=
EXTT12=
EXTT13=
EXTT14=
EXTT15=
EXTT16=
EXTT17=
PLAYORDER=
